PathFileType	4	(X/Y/Z)	C:\Users\WrightLab\Desktop\Jo\P5V114.trc
DataRate	CameraRate	NumFrames	NumMarkers	Units	OrigDataRate	OrigDataStartFrame	OrigNumFrames
100.00	100.00	      42	19	mm	100.00	262	      1045
Frame#	Time	Headset_Front			Headset_Back			Headset_Left			Headset_Right			Left_Shoulder			Right_Shoulder			Sternum			C7			Left Elbow			Right Elbow			Left Wrist			Right Wrist			Left ASIS			Right ASIS			S2			Left Knee			Right Knee			Left Ankle			Right Ankle			
		X1	Y1	Z1	X2	Y2	Z2	X3	Y3	Z3	X4	Y4	Z4	X5	Y5	Z5	X6	Y6	Z6	X7	Y7	Z7	X8	Y8	Z8	X9	Y9	Z9	X10	Y10	Z10	X11	Y11	Z11	X12	Y12	Z12	X13	Y13	Z13	X14	Y14	Z14	X15	Y15	Z15	X16	Y16	Z16	X17	Y17	Z17	X18	Y18	Z18	X19	Y19	Z19	

262	2.610																												-83.74511	1100.84326	1464.03455				-174.84236	955.68542	1282.02356	-501.46436	1003.21582	1773.29077										-230.24046	530.75635	1694.67285							
263	2.620																												-81.91555	1103.28406	1467.31409				-175.36980	965.64758	1282.51636	-501.50677	1002.85907	1772.56909										-229.91840	530.70575	1694.35181							
264	2.630																												-79.96874	1106.89966	1471.09583				-175.81638	976.02673	1283.80066	-501.67325	1002.44348	1771.77869										-229.33789	530.35065	1690.74963							
265	2.640																												-78.37607	1109.70764	1473.55127				-175.41074	986.51794	1285.13403	-501.81107	1001.86383	1770.77966										-228.96275	530.42383	1688.25391							
266	2.650																												-76.68705	1112.53650	1476.53381				-175.59021	996.64850	1286.41333	-501.85712	1001.45599	1770.02380										-228.53929	530.60931	1686.26062							
267	2.660																												-74.74876	1115.27283	1479.35315				-175.56055	1007.05988	1287.64856	-501.87552	1000.87830	1768.89587										-227.92104	530.63806	1685.65710							
268	2.670																												-72.63667	1118.85950	1482.59204				-177.79361	1016.93658	1289.50085	-501.89169	1000.33173	1767.65588										-227.47443	530.46399	1684.81421							
269	2.680																												-70.55352	1121.76135	1485.43738				-177.63596	1026.86365	1291.07495	-502.06070	1000.02631	1766.77002										-226.79517	530.70801	1681.90369							
270	2.690																												-68.56720	1125.12378	1488.55139				-177.36157	1036.63086	1292.74976	-502.23434	999.62836	1765.58459										-225.78944	530.79059	1679.62744							
271	2.700																												-67.14641	1128.32434	1491.84204				-177.85229	1046.52600	1294.44397	-502.26309	999.17255	1764.10266										-224.83832	530.77917	1677.54639							
272	2.710																												-65.61715	1131.63184	1493.62122				-178.31560	1056.28345	1296.69446	-502.55170	998.51721	1762.74512										-223.79736	529.91736	1675.31738							
273	2.720																												-63.60557	1134.74097	1496.44934				-178.13509	1065.31287	1298.42065	-502.60928	997.87183	1761.49524										-223.06039	530.40088	1672.48047							
274	2.730																												-62.47295	1138.09875	1498.15576				-178.52869	1074.45154	1300.12598	-502.65668	997.16193	1760.21606										-222.40332	530.17743	1671.12390							
275	2.740																												-60.93773	1141.75708	1499.99072				-179.00075	1083.59314	1302.13293	-502.72318	996.68878	1759.15613										-221.63533	530.23816	1667.65076							
276	2.750																												-59.45922	1144.89539	1502.16968				-178.63493	1092.74597	1303.80579	-502.67816	996.34521	1758.18188										-220.59505	530.94965	1665.24451							
277	2.760																												-58.36053	1148.01172	1503.39478				-178.55148	1101.15259	1305.53687	-502.62787	995.89899	1757.02942										-219.42256	530.38593	1662.33069							
278	2.770																												-57.14816	1151.64075	1505.51892				-178.91586	1110.38745	1307.32227	-502.69809	995.34637	1755.62903										-218.85536	530.68048	1658.37415							
279	2.780																												-55.92466	1155.03357	1507.57373				-178.95801	1119.01086	1308.74402	-502.75534	995.05682	1754.31580										-218.37595	530.89423	1655.32495							
280	2.790																												-54.28137	1158.82153	1508.89209				-179.51422	1127.72705	1310.35706	-502.91666	994.73499	1752.88123										-217.65823	531.09180	1652.69458							
281	2.800																												-53.05969	1162.24084	1510.09436				-179.16208	1136.05762	1311.30139	-503.16638	994.40448	1751.57971										-216.73447	530.48938	1650.31946							
282	2.810																												-51.90113	1165.73718	1511.11768				-179.71576	1144.27637	1312.25525	-503.33380	994.29486	1750.36328										-216.22043	530.93115	1647.26245							
283	2.820																												-51.30783	1169.42175	1510.84973				-178.70280	1152.40735	1313.26111	-503.54950	994.28271	1749.44263										-215.52539	531.27753	1643.74268							
284	2.830																												-49.72492	1172.93420	1511.53467				-176.06761	1160.24011	1313.53308	-503.57294	994.22198	1748.27502										-214.94978	531.30255	1640.46875							
285	2.840																												-48.29518	1176.48462	1512.33057				-176.47133	1168.53223	1314.22839	-503.76932	994.14197	1747.66150										-214.44724	531.58533	1638.65381							
286	2.850																												-47.79274	1180.37390	1511.48938				-176.69177	1177.30933	1315.11926	-503.81107	993.94452	1747.04419										-214.05786	531.99713	1635.71655							
287	2.860																												-46.53600	1184.01611	1511.90308				-177.18492	1184.96350	1315.75122	-503.98022	993.63507	1746.55798										-213.53346	532.33990	1632.25159							
288	2.870																												-45.24768	1187.69385	1512.33801				-179.30678	1192.36914	1316.30200	-503.98956	993.37970	1746.03027										-213.81293	532.23212	1631.07190							
289	2.880																												-44.67856	1191.64392	1511.38196				-177.76492	1200.09070	1317.08215	-504.16727	992.88794	1745.23474										-213.58791	533.04907	1628.78625							
290	2.890																												-44.26925	1195.63831	1510.58887				-178.40611	1207.43103	1317.12305	-504.38385	992.48364	1744.49487										-213.49747	533.29309	1627.26550							
291	2.900																												-43.33838	1199.46594	1511.24231				-177.55969	1214.17639	1317.36060	-504.64188	991.98627	1743.47705										-213.52864	533.17548	1626.80884							
292	2.910																												-42.27290	1203.00293	1511.90283				-177.33456	1220.91956	1317.99475	-505.14624	991.51227	1742.43945										-213.47141	533.04022	1624.79773							
293	2.920																												-42.01617	1206.65466	1511.49438				-177.22922	1227.63293	1318.56604	-505.69043	991.13550	1741.73206										-213.14285	533.09937	1624.48669							
294	2.930																												-41.47819	1209.84961	1511.83643				-176.72359	1233.45032	1319.49707	-506.08521	990.78082	1741.10242										-212.62935	533.25189	1624.00647							
295	2.940																												-41.08008	1213.36377	1512.35498				-176.66348	1239.33594	1319.96985	-506.62747	990.44305	1740.76489										-212.03844	533.47205	1623.45801							
296	2.950																												-40.31891	1217.16602	1513.32288				-176.15804	1245.03784	1321.29932	-507.10858	989.95691	1740.20850										-211.27036	533.52991	1623.31750							
297	2.960																												-40.40635	1219.19495	1513.30115				-176.51402	1249.98755	1321.60413	-507.52246	989.49725	1739.63501										-210.54121	533.41870	1623.02039							
298	2.970																												-40.60189	1222.62463	1513.04932				-176.33495	1255.45251	1323.19177	-508.14276	989.08905	1738.90210										-204.38333	535.69763	1617.67749							
299	2.980																												-39.68252	1225.97363	1515.06836				-176.53189	1260.11499	1323.93457	-508.86786	988.54614	1738.00647										-210.08307	533.15253	1624.21252							
300	2.990																												-39.52818	1228.83838	1515.68176				-177.27312	1264.53052	1324.56274	-509.62500	988.18567	1737.29907										-210.02637	533.17859	1624.16028							
301	3.000																												-40.09793	1230.50684	1516.30554				-177.23874	1268.23352	1325.93530	-510.53244	987.61548	1736.74585										-210.05798	533.22882	1624.19568							
302	3.010																												-40.30204	1233.78662	1516.76770				-177.13246	1271.73376	1327.02087	-511.22888	987.29065	1737.19812										-210.18227	533.29218	1624.32166							
303	3.020																												-40.19938	1236.28589	1519.29309				-178.26932	1275.54956	1327.86511	-512.02112	986.99982	1737.81628										-210.39464	534.09344	1624.66663							
